<svg width="400" height="450" viewBox="0 0 400 450" fill="none" xmlns="http://www.w3.org/2000/svg">
<path d="M320 105.065H248.2L294.2 59.2748C296.065 57.4104 297.544 55.1971 298.553 52.7611C299.562 50.3252 300.082 47.7144 300.082 45.0777C300.082 42.4411 299.562 39.8303 298.553 37.3943C297.544 34.9584 296.065 32.745 294.2 30.8806C292.335 29.0162 290.121 27.5373 287.685 26.5283C285.249 25.5193 282.637 25 280 25C274.674 25 269.566 27.1153 265.8 30.8806L200 95.8673L176.6 55.8755C175.287 53.591 173.536 51.5874 171.449 49.9792C169.361 48.371 166.977 47.1897 164.433 46.5027C161.888 45.8157 159.234 45.6364 156.62 45.9752C154.006 46.314 151.485 47.1641 149.2 48.477C146.915 49.79 144.911 51.54 143.303 53.6273C141.694 55.7146 140.512 58.0981 139.825 60.6419C139.138 63.1858 138.959 65.84 139.298 68.4531C139.636 71.0661 140.487 73.5869 141.8 75.8714L160 105.065H80C64.087 105.065 48.8258 111.386 37.5736 122.635C26.3214 133.885 20 149.143 20 165.053V325.02C20 340.93 26.3214 356.188 37.5736 367.438C48.8258 378.688 64.087 385.008 80 385.008V405.004C80 410.307 82.1071 415.393 85.8579 419.143C89.6086 422.893 94.6957 425 100 425C105.304 425 110.391 422.893 114.142 419.143C117.893 415.393 120 410.307 120 405.004V385.008H280V405.004C280 410.307 282.107 415.393 285.858 419.143C289.609 422.893 294.696 425 300 425C305.304 425 310.391 422.893 314.142 419.143C317.893 415.393 320 410.307 320 405.004V385.008C335.913 385.008 351.174 378.688 362.426 367.438C373.679 356.188 380 340.93 380 325.02V165.053C380 149.143 373.679 133.885 362.426 122.635C351.174 111.386 335.913 105.065 320 105.065ZM340 325.02C340 330.324 337.893 335.41 334.142 339.16C330.391 342.91 325.304 345.016 320 345.016H80C74.6957 345.016 69.6086 342.91 65.8579 339.16C62.1071 335.41 60 330.324 60 325.02V165.053C60 159.75 62.1071 154.664 65.8579 150.914C69.6086 147.164 74.6957 145.057 80 145.057H320C325.304 145.057 330.391 147.164 334.142 150.914C337.893 154.664 340 159.75 340 165.053V325.02Z" fill="white"/>
</svg>
